<?xml version="1.0" standalone="no"?>
<!DOCTYPE svg PUBLIC "-//W3C//DTD SVG 20010904//EN"
 "http://www.w3.org/TR/2001/REC-SVG-20010904/DTD/svg10.dtd">
<svg version="1.0" xmlns="http://www.w3.org/2000/svg"
 width="1024.000000pt" height="1024.000000pt" viewBox="0 0 1024.000000 1024.000000"
 preserveAspectRatio="xMidYMid meet">

<g transform="translate(0.000000,1024.000000) scale(0.100000,-0.100000)"
fill="#000000" stroke="none">
<path d="M4943 9279 c-729 -37 -1424 -373 -1904 -919 -168 -191 -285 -367
-400 -605 -74 -153 -82 -172 -140 -350 -47 -142 -81 -295 -105 -466 -20 -150
-24 -510 -5 -644 6 -49 13 -103 16 -120 13 -103 87 -386 132 -505 73 -194 119
-289 217 -455 333 -563 886 -1006 1501 -1204 55 -18 107 -35 115 -38 8 -3 22
-7 30 -8 8 -1 56 -11 105 -23 123 -29 361 -62 445 -62 38 0 72 -4 75 -10 3 -5
11 -10 16 -10 6 0 7 5 4 10 -3 6 -1 10 4 10 6 0 11 -4 11 -8 0 -4 37 -9 83
-10 47 -1 76 2 69 6 -8 5 39 11 115 15 143 6 321 34 493 77 594 148 1112 497
1495 1005 214 285 381 624 460 934 76 299 102 568 85 857 -28 458 -153 858
-389 1244 -320 524 -843 938 -1440 1139 -342 116 -689 160 -1088 140z m492
-180 c33 -6 70 -12 82 -12 12 -1 24 -5 28 -9 4 -4 12 -5 19 -2 7 3 66 -7 132
-21 579 -122 1140 -480 1497 -957 106 -142 153 -219 238 -388 110 -222 177
-421 226 -670 25 -128 27 -151 27 -440 0 -271 -2 -318 -22 -422 -84 -456 -248
-820 -523 -1163 -105 -131 -309 -335 -334 -335 -12 0 -31 14 -45 33 -117 160
-310 310 -499 387 -42 18 -81 37 -87 43 -7 8 -9 30 -5 62 6 46 9 51 51 74 181
96 306 188 419 307 110 116 207 264 264 404 70 169 65 162 124 175 120 27 227
105 270 196 32 68 43 147 43 315 0 377 -84 505 -362 549 -36 5 -39 10 -76 89
-22 46 -58 111 -82 146 l-42 62 26 59 c84 185 29 428 -136 610 -56 61 -157
147 -255 215 -80 56 -93 69 -93 93 0 36 -36 89 -79 118 -47 32 -135 32 -181 1
-49 -34 -72 -71 -77 -125 -11 -118 84 -204 202 -182 25 5 50 11 55 14 11 7
123 -69 216 -147 89 -74 161 -159 206 -243 31 -55 33 -67 33 -152 0 -73 -3
-96 -17 -109 -16 -16 -20 -14 -75 35 -127 114 -332 228 -518 289 -95 32 -234
71 -269 78 -343 60 -430 68 -701 68 -228 -1 -432 -18 -590 -49 -38 -8 -83 -16
-100 -19 -242 -41 -585 -196 -764 -347 -39 -32 -77 -59 -85 -59 -20 0 -40 82
-33 145 7 72 32 125 105 220 62 82 158 169 271 245 l64 43 54 -12 c127 -29
237 67 220 192 -6 47 -30 83 -78 115 -46 32 -150 29 -194 -6 -40 -32 -63 -68
-70 -113 -6 -34 -16 -45 -103 -106 -123 -86 -278 -239 -323 -318 -66 -114 -82
-163 -87 -268 -5 -103 5 -159 39 -233 l21 -43 -45 -69 c-25 -37 -61 -101 -81
-140 -19 -40 -39 -79 -45 -86 -6 -7 -37 -16 -68 -19 -158 -16 -283 -140 -312
-308 -14 -84 -14 -367 0 -445 30 -160 142 -273 303 -303 26 -5 51 -13 55 -17
4 -5 18 -38 31 -74 69 -196 179 -369 325 -515 112 -111 215 -187 350 -256 l90
-46 6 -49 c7 -53 -1 -69 -34 -80 -40 -12 -200 -95 -267 -138 -92 -60 -208
-164 -270 -241 -28 -36 -59 -65 -67 -65 -20 0 -252 233 -337 340 -213 264
-389 615 -470 935 -64 255 -71 316 -71 640 1 268 3 313 23 420 101 536 340
995 709 1357 200 196 374 323 626 458 158 84 468 198 585 215 15 2 38 7 52 10
71 18 259 46 360 54 137 11 440 6 525 -10z m-107 -1132 c41 1 72 -3 72 -9 0
-6 15 -7 38 -3 23 4 93 -3 173 -15 585 -94 945 -315 1129 -694 91 -186 127
-391 117 -656 -18 -456 -197 -806 -536 -1047 -209 -148 -456 -236 -786 -279
-193 -26 -633 -26 -820 0 -516 70 -849 237 -1077 541 -178 238 -258 498 -258
843 0 324 71 572 220 770 126 167 309 302 526 386 55 21 108 42 119 47 103 42
454 110 555 108 58 -2 223 11 229 17 3 4 56 3 116 -2 61 -5 143 -8 183 -7z
m-2095 -934 c3 -5 -2 -46 -10 -93 -18 -98 -21 -466 -5 -542 12 -59 -3 -68 -61
-36 -75 42 -82 64 -85 299 -4 218 2 266 40 314 37 47 108 81 121 58z m3847
-15 c79 -54 89 -92 90 -338 0 -197 -6 -239 -42 -278 -29 -31 -98 -66 -108 -55
-4 4 -4 35 1 68 15 94 12 418 -4 520 -8 50 -12 93 -10 98 8 14 40 7 73 -15z
m-2702 -1867 c73 -19 263 -54 362 -67 65 -9 641 -10 730 -2 92 8 221 31 359
63 57 13 109 21 116 18 32 -12 -33 -109 -103 -154 -48 -30 -172 -85 -212 -93
-14 -3 -41 -10 -60 -16 -19 -5 -80 -18 -135 -28 -125 -21 -500 -24 -615 -4
-204 36 -373 99 -460 172 -48 40 -86 102 -75 120 8 13 4 13 93 -9z m1815 -200
c165 -78 320 -199 434 -338 29 -35 35 -48 27 -61 -37 -61 -432 -282 -627 -352
-151 -54 -369 -111 -482 -124 -27 -4 -81 -11 -120 -16 -493 -67 -1099 49
-1540 297 -119 67 -305 192 -305 205 0 35 190 220 300 293 102 67 216 125 247
125 11 0 32 -14 49 -31 62 -65 223 -159 334 -193 30 -10 62 -20 70 -23 18 -7
13 -6 114 -27 43 -9 120 -21 170 -27 96 -11 420 -14 477 -5 19 3 59 8 91 11
77 7 265 56 366 95 94 36 207 108 267 169 21 23 40 41 42 41 2 0 41 -18 86
-39z"/>
<path d="M4924 8708 c-207 -24 -271 -34 -368 -59 -59 -15 -117 -36 -127 -45
-27 -24 -25 -75 4 -102 29 -27 47 -27 151 -3 44 11 104 22 131 26 28 3 59 7
70 9 136 27 407 31 580 9 66 -8 141 -17 168 -19 26 -3 81 -14 124 -24 99 -26
125 -25 151 3 36 38 28 88 -17 111 -70 36 -400 92 -561 95 -52 2 -129 3 -171
4 -42 1 -102 -1 -135 -5z"/>
<path d="M4255 7469 c-157 -27 -277 -89 -392 -204 -64 -65 -90 -100 -123 -168
-126 -261 -101 -623 62 -888 188 -304 554 -483 1087 -530 128 -11 478 -7 561
7 333 55 520 118 707 240 92 60 241 217 292 308 161 284 174 651 35 899 -90
159 -217 257 -414 320 -64 21 -81 21 -915 23 -467 1 -873 -2 -900 -7z m200
-384 c30 -29 31 -49 4 -76 -17 -17 -28 -19 -64 -14 -51 8 -106 -7 -152 -41
-37 -28 -60 -30 -85 -7 -65 59 71 160 220 162 43 1 57 -3 77 -24z m1545 -3
c88 -39 121 -92 83 -134 -21 -23 -44 -23 -76 2 -42 34 -107 52 -160 46 -39 -4
-52 -1 -67 14 -11 11 -20 25 -20 31 0 20 22 50 43 60 34 14 147 4 197 -19z
m-1493 -231 c56 -40 87 -107 91 -198 6 -113 -31 -189 -103 -213 -109 -36 -209
79 -209 240 1 167 110 252 221 171z m1395 -10 c138 -151 -2 -476 -169 -395
-60 30 -88 90 -88 189 0 67 4 88 27 130 26 50 70 98 98 108 8 3 34 6 56 6 36
1 46 -4 76 -38z m-1082 -655 c105 -98 245 -135 399 -106 74 14 155 55 198 101
43 45 64 54 92 40 92 -50 -57 -195 -252 -247 -61 -16 -203 -18 -267 -3 -73 17
-165 66 -225 120 -63 58 -76 90 -50 119 27 30 53 24 105 -24z"/>
<path d="M7597 3783 c-4 -3 -7 -341 -7 -750 l0 -743 130 0 130 0 0 239 c0 141
4 242 10 246 8 5 103 -105 329 -382 l83 -103 166 0 165 0 -20 23 c-50 55 -382
438 -420 484 -24 28 -43 55 -43 60 0 4 110 113 245 242 135 128 245 234 245
235 0 0 -73 0 -162 -2 l-163 -4 -205 -204 c-113 -112 -211 -204 -218 -204 -9
0 -12 95 -12 435 l0 435 -123 0 c-68 0 -127 -3 -130 -7z"/>
<path d="M980 2995 l0 -705 140 0 140 0 0 705 0 705 -140 0 -140 0 0 -705z"/>
<path d="M5625 3463 l0 -128 -103 0 c-121 0 -115 7 -110 -125 l3 -85 91 -1
c50 0 99 -4 108 -7 14 -6 16 -34 16 -249 0 -366 14 -442 92 -514 50 -46 82
-63 150 -79 83 -19 168 -19 240 1 65 18 63 15 47 113 -19 119 -8 108 -96 103
-70 -3 -82 -1 -113 20 -20 14 -40 38 -47 58 -15 45 -18 536 -3 545 6 4 67 6
136 6 l125 -1 -3 107 c-3 90 -6 107 -18 105 -24 -6 -232 -2 -241 4 -5 3 -9 61
-9 130 l0 124 -132 0 -133 0 0 -127z"/>
<path d="M2045 3350 c-76 -16 -137 -50 -192 -106 -31 -32 -58 -53 -63 -48 -5
5 -10 36 -12 69 l-3 60 -115 0 -115 0 -3 -517 -2 -518 124 0 125 0 3 338 c3
327 4 338 26 379 54 102 161 148 281 122 65 -14 125 -64 155 -129 20 -42 21
-65 24 -377 l3 -332 37 -3 c20 -2 77 -2 125 0 l88 3 -3 392 c-3 388 -4 393
-28 452 -34 83 -115 164 -195 194 -67 26 -194 36 -260 21z"/>
<path d="M3300 3345 c-71 -20 -125 -53 -180 -109 -58 -60 -70 -59 -72 7 0 28
-2 57 -3 62 -2 6 -3 15 -4 20 -1 6 -47 10 -116 10 l-115 0 0 -522 0 -523 124
0 125 0 3 333 c3 325 4 333 26 380 45 89 119 129 239 129 101 -1 168 -47 204
-141 20 -52 21 -80 25 -366 2 -170 4 -316 4 -322 0 -10 32 -13 126 -13 l126 0
-5 383 c-4 324 -8 390 -22 432 -39 115 -102 185 -205 225 -73 29 -205 36 -280
15z"/>
<path d="M4540 3353 c-231 -35 -408 -179 -470 -382 -27 -87 -27 -239 0 -331
39 -132 146 -255 273 -318 179 -87 435 -83 610 10 76 41 173 135 211 207 61
115 81 270 51 399 -48 205 -218 363 -437 407 -71 14 -178 18 -238 8z m249
-248 c70 -35 112 -75 147 -137 27 -50 29 -60 29 -163 0 -103 -2 -113 -29 -163
-61 -109 -156 -163 -288 -164 -145 0 -250 58 -305 170 -25 51 -28 68 -28 157
0 95 2 103 35 165 41 75 106 130 184 154 74 23 190 14 255 -19z"/>
<path d="M6750 3354 c-117 -24 -293 -84 -318 -108 -5 -5 75 -176 82 -176 3 0
46 14 97 31 75 25 110 31 183 32 50 0 111 -5 136 -12 80 -23 140 -106 140
-194 0 -36 -16 -41 -70 -21 -28 10 -92 18 -170 21 -186 8 -291 -22 -384 -107
-104 -96 -132 -275 -61 -395 108 -186 453 -213 633 -50 23 20 46 34 52 30 5
-3 10 -31 10 -61 l0 -54 123 0 122 0 -2 322 c-3 392 -6 437 -34 510 -57 149
-192 225 -409 233 -58 2 -116 1 -130 -1z m230 -595 c35 -5 70 -15 77 -21 8 -7
13 -36 13 -82 0 -71 0 -72 -42 -113 -71 -68 -145 -97 -246 -95 -106 2 -172 63
-172 159 0 48 4 58 38 94 59 64 174 84 332 58z"/>
<path d="M9090 3353 c-107 -18 -215 -78 -294 -164 -67 -72 -101 -135 -127
-237 -35 -139 -21 -290 39 -412 35 -71 131 -167 209 -208 128 -67 319 -90 478
-57 73 15 235 88 235 106 0 10 -99 169 -105 169 -2 0 -19 -9 -37 -20 -72 -42
-119 -52 -234 -51 -122 0 -184 17 -250 68 -45 34 -84 100 -87 149 l-2 39 383
3 382 2 0 83 c0 264 -163 485 -389 527 -53 10 -152 11 -201 3z m209 -216 c25
-13 57 -39 73 -58 37 -45 70 -139 56 -156 -16 -20 -481 -18 -497 1 -33 39 93
202 172 225 61 18 149 12 196 -12z"/>
<path d="M1590 1798 l0 -38 60 0 c33 0 61 -1 62 -2 1 -2 4 -82 7 -178 l6 -175
37 -3 38 -3 2 178 3 178 63 3 62 3 0 37 0 37 -170 0 -170 0 0 -37z"/>
<path d="M2805 1831 c-174 -45 -232 -244 -108 -369 24 -23 56 -45 73 -48 16
-4 30 -9 30 -13 0 -9 132 3 151 14 8 4 28 17 46 29 l32 21 -25 26 -26 27 -35
-21 c-43 -25 -106 -26 -151 -3 -94 49 -97 187 -6 247 39 25 119 25 160 0 l32
-19 22 23 c26 28 21 39 -29 65 -44 22 -123 32 -166 21z"/>
<path d="M3230 1617 l0 -218 38 3 37 3 5 85 5 85 100 0 100 0 3 -86 3 -86 39
1 40 0 0 213 0 213 -24 0 c-13 0 -31 3 -40 6 -13 5 -16 -8 -18 -88 l-3 -93
-94 -3 c-69 -2 -97 1 -103 10 -5 7 -8 46 -7 86 1 40 -1 76 -5 80 -4 4 -23 7
-42 7 l-34 1 0 -219z"/>
<path d="M4195 1831 c-74 -19 -105 -54 -105 -119 0 -58 36 -95 116 -118 93
-26 114 -40 114 -74 0 -61 -80 -78 -166 -35 -27 14 -50 25 -51 25 -1 0 -10
-14 -18 -30 l-16 -31 53 -24 c95 -44 223 -29 262 31 17 25 23 86 12 121 -7 22
-95 73 -125 73 -33 1 -98 38 -104 60 -14 52 71 78 150 45 20 -8 37 -14 38 -13
6 7 25 47 25 52 0 24 -131 51 -185 37z"/>
<path d="M4756 1829 c-156 -38 -221 -229 -120 -348 51 -59 99 -81 179 -81 78
0 126 21 174 76 42 48 51 73 51 149 0 54 -4 69 -32 111 -19 27 -51 59 -73 71
-48 26 -125 36 -179 22z m134 -91 c132 -91 51 -293 -106 -264 -93 18 -140 141
-85 225 39 61 131 80 191 39z"/>
<path d="M5254 1816 c-2 -12 -3 -109 -2 -216 l3 -195 145 0 144 0 7 32 c8 40
4 42 -110 39 -50 -1 -92 -2 -93 -1 -1 0 -4 79 -7 175 l-6 175 -38 6 c-32 5
-38 3 -43 -15z"/>
<path d="M5742 1668 c3 -150 5 -169 24 -194 43 -58 69 -69 157 -69 71 0 87 3
116 24 53 38 64 77 70 242 4 92 2 150 -4 155 -5 5 -24 10 -42 10 l-31 2 -4
-153 c-3 -145 -4 -155 -27 -179 -30 -32 -71 -41 -116 -26 -55 18 -65 48 -65
202 0 73 -4 138 -8 143 -4 6 -22 10 -40 10 l-33 0 3 -167z"/>
<path d="M6309 1828 c-8 -61 -7 -63 61 -68 l65 -5 3 -178 2 -178 38 3 37 3 5
175 5 175 63 3 63 3 -3 35 -3 35 -168 2 c-92 1 -167 -1 -168 -5z"/>
<path d="M6856 1831 c-3 -4 -6 -102 -6 -217 l-2 -209 38 0 38 0 1 208 c1 114
-2 211 -5 215 -7 10 -59 12 -64 3z"/>
<path d="M7298 1826 c-99 -27 -158 -104 -158 -208 0 -31 6 -71 14 -89 17 -39
67 -90 113 -113 41 -21 142 -21 191 0 117 48 166 188 107 303 -28 56 -67 87
-132 107 -55 17 -73 17 -135 0z m133 -81 c116 -61 77 -258 -53 -272 -115 -11
-197 125 -133 223 38 58 124 81 186 49z"/>
<path d="M8105 1820 c-2 -8 -4 -67 -2 -130 1 -94 -1 -115 -13 -115 -7 0 -58
56 -112 125 -94 121 -99 125 -135 125 l-38 0 0 -210 0 -209 38 -4 37 -3 0 129
c0 100 3 131 13 135 9 3 49 -40 108 -116 121 -155 115 -149 158 -143 20 3 36
5 36 6 0 0 0 91 0 202 0 139 -4 207 -11 215 -16 17 -73 12 -79 -7z"/>
<path d="M8495 1826 c-58 -22 -85 -57 -85 -112 0 -62 33 -94 128 -123 69 -21
112 -48 112 -71 0 -6 -11 -22 -25 -35 -31 -32 -83 -33 -151 -1 -49 23 -51 23
-62 5 -20 -32 -14 -45 30 -65 30 -14 65 -19 123 -19 67 0 85 4 112 23 60 43
65 148 9 185 -12 8 -54 24 -93 36 -96 29 -127 66 -85 104 23 21 90 22 137 3
35 -15 35 -15 50 15 16 30 16 30 -19 44 -54 23 -135 27 -181 11z"/>
<path d="M2140 1616 l0 -214 158 2 157 1 0 30 0 30 -105 3 c-58 1 -111 4 -118
7 -9 3 -12 21 -10 57 l3 53 98 3 97 3 0 34 0 34 -97 3 -98 3 -3 44 c-2 28 1
47 10 53 7 4 58 8 113 7 l100 -2 0 29 0 29 -152 3 -153 3 0 -215z"/>
</g>
</svg>
