<svg version="1.0" xmlns="http://www.w3.org/2000/svg"
 width="1024.000000pt" height="1024.000000pt" viewBox="0 0 1024.000000 1024.000000"
 preserveAspectRatio="xMidYMid meet">

<g transform="translate(0.000000,1024.000000) scale(0.100000,-0.100000)"
fill="#2563eb" stroke="none">
<path d="M4891 9289 c-669 -55 -1261 -328 -1731 -799 -149 -149 -231 -248
-352 -430 -208 -312 -347 -677 -415 -1085 -23 -139 -26 -598 -5 -740 47 -312
124 -560 262 -840 319 -650 896 -1156 1582 -1388 273 -93 513 -136 804 -144
491 -14 921 84 1353 308 861 447 1425 1312 1480 2269 44 781 -250 1532 -816
2080 -471 458 -1053 715 -1737 770 -146 11 -274 11 -425 -1z m402 -189 c557
-40 1051 -231 1463 -566 120 -97 320 -305 415 -430 280 -372 456 -815 500
-1261 16 -167 6 -495 -20 -646 -65 -372 -192 -696 -390 -993 -108 -162 -194
-267 -334 -409 l-118 -120 -36 45 c-56 69 -170 177 -254 240 -77 58 -242 147
-312 170 l-38 12 3 55 3 56 55 29 c365 195 594 448 715 791 24 66 32 78 54 83
203 40 314 147 343 330 15 99 5 425 -16 489 -45 141 -166 235 -325 251 l-57 6
-24 60 c-13 32 -50 100 -82 150 l-59 91 25 36 c28 40 56 136 56 192 0 62 -19
141 -51 209 -64 138 -230 315 -394 421 -76 49 -84 57 -84 87 -2 75 -67 155
-136 168 -190 35 -308 -165 -176 -297 49 -49 107 -65 178 -49 51 11 53 10 105
-23 160 -102 292 -238 354 -362 44 -90 52 -150 30 -210 -10 -25 -20 -45 -23
-45 -2 0 -25 20 -51 44 -416 393 -1319 554 -2157 385 -340 -69 -623 -196 -818
-368 -32 -28 -62 -49 -67 -46 -18 11 -32 79 -27 127 11 86 70 181 187 299 58
58 141 129 184 158 69 45 83 51 110 44 52 -13 122 -7 157 13 161 94 97 334
-88 334 -60 0 -95 -15 -135 -57 -32 -34 -48 -73 -48 -117 0 -30 -7 -37 -74
-79 -102 -65 -235 -184 -308 -275 -150 -188 -185 -381 -99 -538 l28 -51 -58
-86 c-31 -48 -69 -116 -84 -151 l-27 -63 -61 -7 c-163 -17 -292 -133 -326
-294 -14 -69 -14 -405 0 -474 35 -165 152 -273 330 -302 33 -6 37 -10 53 -64
98 -316 356 -611 691 -792 44 -24 81 -44 81 -44 1 -1 5 -26 8 -57 l7 -56 -48
-18 c-199 -74 -419 -235 -554 -404 l-35 -44 -114 114 c-402 400 -652 890 -735
1439 -23 152 -30 429 -15 590 90 977 761 1827 1695 2147 326 112 682 158 1028
133z m145 -1145 c498 -51 858 -192 1098 -431 163 -164 260 -358 299 -598 21
-129 21 -399 1 -531 -66 -433 -307 -757 -711 -955 -268 -132 -574 -190 -1000
-190 -438 0 -737 59 -1030 205 -364 180 -601 479 -680 856 -36 171 -37 517 -1
684 64 302 226 529 497 698 207 129 531 226 866 261 174 18 487 19 661 1z
m-2216 -992 c-16 -89 -21 -403 -9 -537 l8 -89 -43 25 c-25 15 -55 45 -73 74
l-30 47 0 206 c0 186 2 210 20 246 21 42 95 105 124 105 16 0 16 -5 3 -77z
m3850 48 c31 -20 53 -44 69 -77 23 -46 24 -59 24 -229 0 -99 -4 -197 -8 -218
-9 -43 -65 -110 -110 -133 l-29 -16 9 89 c12 133 7 446 -9 536 -16 89 -14 91
54 48z m-2760 -1850 c42 -16 228 -52 373 -72 186 -26 498 -35 695 -20 162 13
384 48 508 80 39 10 72 16 72 12 0 -5 -14 -27 -30 -49 -73 -101 -230 -177
-464 -225 -97 -19 -142 -22 -346 -22 -202 0 -250 3 -346 23 -237 47 -390 122
-465 225 -40 55 -39 64 3 48z m-121 -233 c99 -86 232 -153 404 -203 174 -50
259 -60 535 -59 238 0 264 2 381 27 145 31 276 74 369 123 55 29 93 55 215
148 17 13 152 -48 255 -116 95 -62 202 -156 271 -239 l39 -47 -67 -47 c-322
-226 -704 -377 -1114 -441 -160 -25 -547 -26 -709 -1 -386 60 -757 201 -1073
410 l-118 78 30 37 c43 54 178 182 239 226 58 42 257 146 279 146 8 0 36 -19
64 -42z"/>
<path d="M4965 8719 c-199 -13 -486 -68 -543 -105 -53 -34 -48 -111 8 -134 24
-10 47 -8 137 13 362 85 778 82 1133 -10 84 -21 117 -13 136 32 17 41 6 77
-28 98 -29 18 -194 61 -313 81 -81 14 -358 38 -395 34 -8 0 -69 -4 -135 -9z"/>
<path d="M4174 7460 c-198 -52 -345 -173 -441 -364 -59 -118 -76 -199 -76
-376 -1 -170 10 -235 63 -367 90 -224 295 -420 561 -534 252 -109 545 -155
922 -146 499 12 850 129 1102 368 125 119 212 265 258 434 30 109 32 384 3
485 -56 202 -194 370 -371 455 -140 66 -120 65 -1082 64 -814 0 -872 -1 -939
-19z m266 -384 c29 -13 39 -56 17 -75 -11 -9 -25 -9 -59 0 -54 15 -105 6 -152
-26 -42 -29 -68 -32 -86 -10 -20 24 2 59 56 91 74 44 157 51 224 20z m1518 11
c54 -15 127 -59 136 -84 9 -22 -12 -53 -36 -53 -12 0 -39 12 -60 26 -45 31
-123 43 -167 24 -55 -22 -95 25 -53 63 16 15 74 34 112 36 9 1 39 -5 68 -12z
m-1443 -247 c76 -74 101 -210 55 -304 -27 -57 -70 -86 -125 -86 -95 0 -155 86
-155 220 0 89 21 142 71 184 45 38 106 33 154 -14z m1356 24 c21 -10 39 -33
56 -71 22 -48 25 -65 21 -137 -7 -130 -63 -206 -154 -206 -90 0 -143 73 -144
195 0 163 113 275 221 219z m-1055 -685 c175 -158 427 -157 608 1 64 56 60 54
87 40 87 -47 -131 -215 -311 -241 -131 -18 -261 9 -365 76 -107 68 -153 138
-107 164 26 16 28 15 88 -40z"/>
<path d="M7580 3035 l0 -755 140 0 140 0 0 246 0 246 106 -128 c58 -71 149
-182 202 -246 l97 -117 174 -1 c164 0 173 1 160 18 -8 9 -114 137 -235 283
l-221 265 233 245 233 244 -162 3 -162 3 -212 -218 -213 -218 0 443 0 442
-140 0 -140 0 0 -755z"/>
<path d="M970 2990 l0 -710 150 0 150 0 0 710 0 710 -150 0 -150 0 0 -710z"/>
<path d="M5630 3470 l0 -129 -112 -3 -113 -3 -3 -107 -3 -108 115 0 115 0 3
-312 c3 -302 4 -315 26 -363 61 -133 207 -207 382 -192 74 6 150 25 150 38 0
4 -4 30 -9 56 -6 26 -13 73 -16 103 l-6 55 -73 -3 c-57 -3 -83 0 -118 16 -75
33 -79 48 -76 344 l3 253 138 3 137 3 0 109 0 110 -141 0 -140 0 3 130 3 130
-132 0 -133 0 0 -130z"/>
<path d="M2035 3357 c-73 -20 -132 -53 -192 -110 l-53 -50 0 72 0 72 -132 -3
c-73 -2 -132 -6 -130 -10 1 -5 2 -242 2 -528 l0 -520 135 0 135 0 0 328 c0
200 4 342 11 365 13 49 73 115 124 138 49 23 133 24 183 3 52 -21 100 -70 128
-129 24 -49 24 -54 24 -377 l0 -328 140 0 140 0 0 328 c0 180 -5 355 -10 390
-28 171 -117 290 -259 346 -58 23 -183 29 -246 13z"/>
<path d="M3303 3355 c-75 -21 -121 -47 -181 -100 l-51 -46 -3 63 -3 63 -127 0
c-71 0 -128 -3 -128 -7 0 -5 0 -242 0 -528 l0 -520 135 0 135 0 0 326 c0 228
4 339 12 368 8 25 31 59 58 86 116 116 292 85 373 -65 21 -38 22 -54 25 -377
l3 -338 135 0 135 0 -3 383 c-3 370 -4 384 -26 438 -49 123 -122 199 -230 239
-73 28 -191 34 -259 15z"/>
<path d="M4515 3356 c-138 -27 -231 -74 -317 -161 -208 -210 -207 -568 3 -775
115 -114 247 -164 439 -164 191 -1 323 49 440 164 219 216 211 596 -17 799
-134 120 -354 175 -548 137z m247 -241 c64 -22 131 -84 165 -153 25 -51 28
-67 28 -157 -1 -89 -4 -106 -28 -152 -33 -64 -85 -115 -146 -145 -62 -30 -180
-37 -250 -13 -64 21 -144 92 -179 159 -24 46 -27 62 -27 151 0 81 4 109 21
146 72 154 244 222 416 164z"/>
<path d="M6745 3359 c-84 -12 -188 -45 -265 -84 l-67 -34 44 -88 c23 -48 44
-92 46 -97 2 -5 21 1 43 12 78 40 185 66 271 66 71 0 89 -4 139 -29 68 -36 94
-77 94 -148 0 -41 -3 -48 -17 -43 -105 32 -278 37 -386 12 -128 -30 -222 -94
-267 -183 -35 -69 -40 -205 -11 -283 81 -215 392 -274 631 -119 33 21 63 39
65 39 3 0 5 -22 5 -50 l0 -50 130 0 130 0 0 358 c0 391 -5 436 -63 534 -88
150 -286 221 -522 187z m278 -609 l37 -11 0 -76 0 -76 -42 -42 c-56 -55 -136
-85 -226 -85 -115 0 -172 45 -180 143 -4 51 -2 57 33 96 53 58 103 72 235 66
58 -2 122 -9 143 -15z"/>
<path d="M9083 3359 c-163 -27 -297 -126 -378 -280 -48 -92 -66 -167 -66 -281
0 -261 163 -466 421 -529 76 -19 259 -16 344 4 80 20 236 90 236 107 0 9 -62
128 -89 169 -7 11 -25 7 -96 -24 -140 -60 -295 -59 -394 2 -68 42 -124 113
-145 181 l-7 22 392 0 392 0 -6 98 c-10 149 -39 241 -110 343 -102 150 -291
222 -494 188z m218 -242 c54 -29 96 -93 105 -159 l7 -48 -247 0 -247 0 6 23
c21 70 103 164 169 193 52 22 156 18 207 -9z"/>
<path d="M2825 1843 c-58 -13 -91 -29 -127 -61 -56 -50 -71 -86 -72 -162 -1
-127 79 -214 209 -227 61 -6 134 14 180 51 l30 25 -31 31 -31 32 -38 -26 c-58
-40 -124 -37 -172 8 -33 30 -37 39 -40 92 -3 47 0 66 17 92 41 65 138 78 199
26 l29 -24 26 31 c14 17 26 35 26 40 0 17 -81 60 -132 69 -28 6 -51 9 -52 9 0
-1 -10 -3 -21 -6z"/>
<path d="M4195 1841 c-71 -18 -115 -67 -115 -129 0 -71 34 -102 147 -135 28
-9 61 -20 72 -27 28 -14 28 -56 -1 -71 -29 -15 -112 -5 -154 20 l-33 20 -21
-35 c-11 -20 -18 -39 -15 -44 3 -5 30 -18 61 -29 111 -42 234 -17 268 53 44
93 -3 161 -134 196 -59 15 -90 36 -90 60 0 39 71 52 137 25 19 -8 39 -15 42
-15 8 0 44 71 39 75 -2 2 -20 10 -41 19 -47 19 -122 27 -162 17z"/>
<path d="M4777 1839 c-69 -11 -131 -51 -163 -105 -68 -115 -28 -254 90 -317
58 -31 174 -30 233 0 132 71 162 245 60 351 -58 60 -131 84 -220 71z m85 -89
c54 -15 92 -68 92 -129 0 -84 -54 -141 -134 -141 -56 0 -96 26 -121 78 -36 73
-11 148 62 184 40 21 51 22 101 8z"/>
<path d="M7319 1839 c-57 -9 -96 -29 -130 -66 -49 -52 -61 -89 -57 -169 3 -61
8 -79 33 -115 44 -63 111 -94 200 -94 89 0 156 31 200 94 28 39 30 50 30 126
0 76 -3 87 -30 127 -20 29 -47 51 -85 70 -66 31 -100 37 -161 27z m94 -93 c54
-23 80 -59 85 -118 7 -88 -47 -148 -133 -148 -79 0 -135 57 -135 137 0 59 26
101 75 124 48 22 66 23 108 5z"/>
<path d="M8517 1839 c-74 -17 -117 -65 -117 -129 0 -69 35 -101 147 -133 28
-9 61 -20 72 -27 28 -14 28 -56 -1 -71 -29 -15 -112 -5 -154 20 l-33 20 -20
-35 c-12 -19 -21 -37 -21 -39 0 -3 19 -14 43 -26 50 -26 159 -37 209 -20 49
16 89 61 95 108 10 75 -36 124 -147 153 -59 15 -90 36 -90 60 0 39 71 52 137
25 47 -20 47 -20 66 19 20 43 13 49 -68 71 -66 17 -65 17 -118 4z"/>
<path d="M1580 1795 l0 -45 70 0 70 0 0 -175 0 -175 45 0 45 0 0 175 0 175 70
0 70 0 0 45 0 45 -185 0 -185 0 0 -45z"/>
<path d="M2120 1620 l0 -220 170 0 170 0 0 40 0 40 -120 0 -120 0 0 45 0 45
105 0 105 0 0 45 0 45 -105 0 -105 0 0 45 0 45 121 0 120 0 -3 43 -3 42 -167
3 -168 2 0 -220z"/>
<path d="M3220 1620 l0 -220 50 0 50 0 0 85 0 86 98 -3 97 -3 -3 -82 -3 -83
51 0 50 0 0 221 0 220 -47 -3 -48 -3 -3 -87 -3 -88 -79 0 c-43 0 -85 -3 -94
-6 -14 -5 -16 6 -16 90 l0 96 -50 0 -50 0 0 -220z"/>
<path d="M5240 1620 l0 -220 155 0 155 0 0 40 0 40 -105 0 -105 0 0 180 0 180
-50 0 -50 0 0 -220z"/>
<path d="M5720 1702 c0 -163 15 -227 60 -266 73 -61 194 -61 277 1 48 35 63
97 63 265 l0 138 -50 0 -50 0 0 -151 0 -151 -29 -29 c-22 -21 -39 -29 -66 -29
-88 0 -105 35 -105 220 l0 140 -50 0 -50 0 0 -138z"/>
<path d="M6290 1795 l0 -45 70 0 71 0 -3 -175 -3 -175 48 0 47 0 0 175 0 175
70 0 70 0 0 45 0 45 -185 0 -185 0 0 -45z"/>
<path d="M6847 1833 c-4 -3 -7 -102 -7 -220 l0 -213 50 0 50 0 0 220 0 220
-43 0 c-24 0 -47 -3 -50 -7z"/>
<path d="M7790 1620 l0 -220 50 0 50 0 0 130 c0 72 3 130 8 130 4 -1 54 -59
111 -130 l103 -130 44 0 44 0 0 220 0 220 -45 0 -44 0 -3 -140 -3 -140 -114
140 -115 140 -43 0 -43 0 0 -220z"/>
</g>
</svg>